<svg xmlns="http://www.w3.org/2000/svg" viewBox="0 0 198 69">
  <g>
    <path d="M19.11,1.8V6.71a1.8,1.8,0,0,1-1.8,1.8H12.62a1.81,1.81,0,0,0-1.8,1.8V58a1.81,1.81,0,0,0,1.8,1.81h4.69a1.79,1.79,0,0,1,1.8,1.8v4.83a1.8,1.8,0,0,1-1.8,1.81H1.8A1.81,1.81,0,0,1,0,66.43V1.8A1.81,1.81,0,0,1,1.8,0H17.31A1.8,1.8,0,0,1,19.11,1.8Z" fill="#03cfbb"/>
    <path d="M54,18.57v34.7a1.81,1.81,0,0,1-1.81,1.8H44.43a1.81,1.81,0,0,1-1.8-1.8V18.57a1.81,1.81,0,0,1,1.8-1.8h7.79A1.81,1.81,0,0,1,54,18.57Z" fill="#03cfbb"/>
    <path d="M78.91,39.38V34.19a1.8,1.8,0,0,1,1.8-1.8h19.41a1.8,1.8,0,0,1,1.8,1.8v5.19a1.81,1.81,0,0,1-1.8,1.81H80.71A1.81,1.81,0,0,1,78.91,39.38Z" fill="#03cfbb"/>
    <path d="M197.85,1.8V66.43a1.8,1.8,0,0,1-1.8,1.81H180.54a1.81,1.81,0,0,1-1.8-1.81v-4.9a1.81,1.81,0,0,1,1.8-1.81h4.69a1.79,1.79,0,0,0,1.8-1.8V10.31a1.8,1.8,0,0,0-1.8-1.8h-4.69a1.81,1.81,0,0,1-1.8-1.8V1.8a1.81,1.81,0,0,1,1.8-1.8h15.51A1.8,1.8,0,0,1,197.85,1.8Z" fill="#03cfbb"/>
    <path d="M136.61,56.35c-1,2.77-2.6,7.26-3.62,10a1.79,1.79,0,0,0,1.68,2.42h6.93a1.79,1.79,0,0,0,1.7-1.2c1.19-3.43,4.44-12.95,4.64-13.57l11.45-36a1.8,1.8,0,0,0-1.71-2.34h-7.9A1.8,1.8,0,0,0,148,17l-5.35,22.11a1.79,1.79,0,0,1-3.49,0l-4.87-22a1.8,1.8,0,0,0-1.75-1.41h-8.26A1.8,1.8,0,0,0,122.61,18L133.2,52.68A1.79,1.79,0,0,0,134.91,54h0A1.8,1.8,0,0,1,136.61,56.35Z" fill="#03cfbb"/>
  </g>
</svg>
